<svg xmlns="http://www.w3.org/2000/svg" viewBox="0 0 54 41" width="54" height="41">
	<defs>
		<clipPath clipPathUnits="userSpaceOnUse" id="cp1">
			<path d="M-760 -3929L826 -3929L826 1778L-760 1778Z" />
		</clipPath>
	</defs>
	<style>
		tspan { white-space:pre }
		.shp0 { fill: #545760 } 
	</style>
	<g id="Resturant Landing" clip-path="url(#cp1)">
		<g id="clnt">
			<g id="txt">
				<path id="bxs-quote-left" class="shp0" d="M48.66 35.13C45.01 39.02 39.48 41 32.24 41L29.64 41L29.64 33.78L31.73 33.36C35.29 32.66 37.78 31.28 39.1 29.25C39.92 28.01 40.19 26.67 40.24 25.62L34.84 25.62L32.24 25.62C30.8 25.62 29.64 24.48 29.64 23.06L29.64 5.12C29.64 2.3 31.97 0 34.84 0L50.46 0C51.9 0 53.06 1.15 53.06 2.56L53.06 15.37L53.06 22.85C53.08 23.14 53.57 29.88 48.66 35.13ZM6.21 0L21.83 0C23.27 0 24.43 1.15 24.43 2.56L24.43 15.37L24.42 22.85C24.44 23.14 24.94 29.88 20.03 35.13C16.37 39.02 10.85 41 3.6 41L1 41L1 33.78L3.09 33.36C6.66 32.66 9.14 31.28 10.47 29.25C11.28 28.01 11.55 26.67 11.61 25.62L6.21 25.62L3.6 25.62C2.16 25.62 1 24.48 1 23.06L1 5.12C1 2.3 3.33 0 6.21 0Z" />
			</g>
		</g>
	</g>
</svg>